<?xml version="1.0" encoding="iso-8859-1"?>
<!-- Generator: Adobe Illustrator 16.0.0, SVG Export Plug-In . SVG Version: 6.00 Build 0)  -->
<!DOCTYPE svg PUBLIC "-//W3C//DTD SVG 1.1//EN" "http://www.w3.org/Graphics/SVG/1.1/DTD/svg11.dtd">
<svg fill="#fff" version="1.1" id="Flat" xmlns="http://www.w3.org/2000/svg" xmlns:xlink="http://www.w3.org/1999/xlink" x="0px" y="0px"
	 width="792px" height="612px" viewBox="0 0 792 612" style="enable-background:new 0 0 792 612;" xml:space="preserve">
<g style="opacity:0.2;">
	<path d="M286.371,472.043l-71.578,71.578c-7.469,7.469-19.578,7.469-27.047,0l0,0l-29.367-29.367
		c-7.469-7.469-7.469-19.578,0-27.047l71.578-71.578c7.469-7.469,7.469-19.578,0-27.047l-49.934-49.934
		c-7.469-7.469-7.469-19.578,0-27.047l30.328-30.328c7.469-7.469,19.578-7.469,27.047,0l183.328,183.328
		c7.469,7.469,7.469,19.578,0,27.047l-30.328,30.328c-7.469,7.469-19.578,7.469-27.047,0l-49.934-49.934
		C305.949,464.574,293.84,464.574,286.371,472.043z"/>
</g>
<path d="M619.899,82.102c-3.587-3.586-8.452-5.602-13.524-5.602h-0.061l-152.52,0.481c-5.684,0.018-11.064,2.563-14.685,6.944
	L270.82,287.646l-19.898-19.899c-14.95-14.909-39.146-14.908-54.095,0.002l-30.324,30.326c-14.939,14.935-14.942,39.151-0.008,54.09
	c0.002,0.002,0.004,0.004,0.006,0.005l49.932,49.935l-71.579,71.579c-14.913,14.948-14.911,39.146,0.002,54.093l29.367,29.367
	c14.938,14.938,39.156,14.938,54.094,0c0,0,0,0,0.001,0l71.576-71.579l49.935,49.937c14.951,14.908,39.146,14.907,54.095-0.002
	l30.324-30.326c14.938-14.935,14.94-39.152,0.006-54.091c-0.001-0.001-0.003-0.003-0.004-0.004l-19.897-19.898L618.073,262.89
	c4.382-3.62,6.928-9.001,6.946-14.685l0.48-152.519C625.516,90.593,623.5,85.704,619.899,82.102z M376.875,508.454l-49.932-49.935
	c-14.938-14.938-39.156-14.938-54.094-0.002c0,0.001-0.001,0.001-0.001,0.002l-71.579,71.578l-29.367-29.367l71.579-71.578
	c14.912-14.947,14.912-39.146,0-54.093l-49.932-49.935l30.326-30.329l34.668,34.668l0.003,0.003l56.986,56.987l0.006,0.007
	l0.006,0.005l91.657,91.658L376.875,508.454z M586.797,239.114L387.184,404.013l-31.074-31.075l129.915-129.913
	c7.466-7.473,7.46-19.583-0.014-27.049c-7.468-7.46-19.567-7.46-27.035,0L329.063,345.89l-31.073-31.074l164.896-199.614
	l124.304-0.391L586.797,239.114z"/>
</svg>
