<?xml version="1.0" encoding="utf-8"?>
<!-- Generator: Adobe Illustrator 16.0.0, SVG Export Plug-In . SVG Version: 6.00 Build 0)  -->
<!DOCTYPE svg PUBLIC "-//W3C//DTD SVG 1.1//EN" "http://www.w3.org/Graphics/SVG/1.1/DTD/svg11.dtd">
<svg fill="#fff" version="1.1" id="Layer_1" xmlns="http://www.w3.org/2000/svg" xmlns:xlink="http://www.w3.org/1999/xlink" x="0px" y="0px"
	 width="792px" height="612px" viewBox="0 0 792 612" enable-background="new 0 0 792 612" xml:space="preserve">
<path d="M627.174,162.921c-49.367,0-89.41-40.043-89.41-89.409c0-2.869,0.12-5.857,0.479-8.726H258.3
	c0.239,2.869,0.359,5.737,0.359,8.726c0,12.431-2.51,24.384-7.172,35.142c-13.626,32.035-45.422,54.387-82.357,54.387
	c-3.945,0-7.65-0.239-11.475-0.717c1.554,42.434,8.248,83.194,19.603,121.563c13.507,46.139,33.588,88.692,58.929,126.225
	c41.238,61.08,96.342,109.012,159.813,137.222c134.831-60.005,231.891-208.702,238.226-384.652
	C631.835,162.802,629.564,162.921,627.174,162.921z M554.977,303.131H396.119v188.023c0,0,0,0-0.119,0
	c-45.78-24.863-86.302-62.276-117.978-109.371c-16.375-24.267-30.122-50.683-40.999-78.652h159.096V115.108h97.538
	c13.147,41.836,45.422,75.305,86.54,90.007C575.536,239.063,567.049,272.053,554.977,303.131z"/>
<g id="Layer_2">
</g>
<path fill="#fff" d="M495.477,177.654c-1.522-1.521-3.586-2.375-5.735-2.376h-0.026l-64.692,0.204
	c-2.409,0.007-4.691,1.087-6.228,2.946l-71.377,86.406l-8.44-8.441c-6.34-6.324-16.603-6.323-22.944,0.001l-12.862,12.863
	c-6.336,6.334-6.337,16.606-0.003,22.941c0,0,0.001,0.001,0.002,0.001l21.179,21.18l-30.36,30.36
	c-6.325,6.341-6.325,16.603,0.001,22.942l12.455,12.456c6.336,6.335,16.608,6.335,22.944,0l0,0l30.358-30.36l21.179,21.181
	c6.341,6.322,16.603,6.321,22.944-0.001l12.862-12.862c6.336-6.335,6.337-16.607,0.002-22.942l-0.001-0.002l-8.439-8.439
	l86.405-71.379c1.859-1.536,2.938-3.817,2.947-6.228l0.204-64.69C497.857,181.255,497.003,179.181,495.477,177.654z M392.4,358.486
	l-21.178-21.18c-6.335-6.336-16.607-6.336-22.943-0.001c0,0.001,0,0.001,0,0.001l-30.36,30.358l-12.456-12.456l30.36-30.357
	c6.325-6.341,6.325-16.604,0-22.943l-21.178-21.18l12.863-12.864l14.704,14.704l0.001,0.001l24.17,24.171l0.002,0.003l0.002,0.002
	l38.875,38.875L392.4,358.486z M481.436,244.249l-84.664,69.94l-13.179-13.181l55.102-55.101c3.165-3.17,3.163-8.307-0.006-11.473
	c-3.168-3.164-8.3-3.164-11.468,0l-55.102,55.102l-13.18-13.18l69.939-84.664l52.723-0.166L481.436,244.249z"/>
<path fill="#fff" d="M489.377,183.066c-1.44-1.441-3.394-2.25-5.432-2.25h-0.022l-61.258,0.194
	c-2.281,0.007-4.442,1.029-5.896,2.789l-67.589,81.817l-7.992-7.992c-6.003-5.988-15.721-5.987-21.725,0.001l-12.179,12.18
	c-6,5.999-6.001,15.725-0.003,21.724c0,0.001,0.001,0.001,0.002,0.001l20.053,20.055l-28.747,28.748
	c-5.989,6.004-5.988,15.721,0,21.725l11.795,11.794c5.999,5.999,15.727,5.999,21.725,0l0,0l28.746-28.748l20.055,20.057
	c6.005,5.986,15.722,5.986,21.726-0.001l12.18-12.18c5.999-5.998,6-15.726,0.002-21.725l-0.001-0.001l-7.991-7.992l81.816-67.589
	c1.761-1.454,2.783-3.615,2.791-5.898l0.192-61.255C491.633,186.476,490.823,184.512,489.377,183.066z M391.774,354.298
	l-20.054-20.056c-6-5.999-15.726-5.999-21.726,0c0,0,0,0,0,0l-28.747,28.746l-11.794-11.793l28.748-28.748
	c5.989-6.004,5.989-15.722,0-21.724l-20.054-20.055l12.181-12.182l13.923,13.924l0.001,0.001l22.887,22.887l0.002,0.003l0.002,0.002
	l36.811,36.811L391.774,354.298z M476.082,246.125l-80.168,66.226l-12.479-12.479l52.176-52.176
	c2.999-3.001,2.997-7.865-0.006-10.863c-2.999-2.996-7.858-2.996-10.857,0l-52.176,52.175l-12.48-12.479l66.228-80.169l49.922-0.156
	L476.082,246.125z"/>
</svg>
