<svg fill="#fff" height="512pt" viewBox="0 -34 512 511" width="512pt" xmlns="http://www.w3.org/2000/svg"><path d="m383.730469 297.015625 45.589843-52.570313c45.417969-20.808593 74.664063-66.214843 74.664063-116.167968 0-70.457032-57.320313-127.777344-127.773437-127.777344-55.246094 0-102.417969 35.25-120.210938 84.433594-17.792969-49.183594-64.960938-84.433594-120.207031-84.433594-27.898438 0-54.414063 8.84375-76.675781 25.574219l9.09375 12.097656c19.621093-14.742187 42.988281-22.535156 67.582031-22.535156 62.109375 0 112.640625 50.53125 112.640625 112.640625h15.136718c0-62.109375 50.53125-112.640625 112.640626-112.640625 62.109374 0 112.640624 50.53125 112.640624 112.640625 0 44.535156-26.386718 84.976562-67.21875 103.03125l-1.546874.683594-56.386719 65.023437h-215.398438l-56.386719-65.023437-1.546874-.683594c-40.832032-18.054688-67.21875-58.496094-67.21875-103.03125 0-28.480469 10.667968-55.664063 30.039062-76.554688l-11.101562-10.289062c-21.972657 23.695312-34.070313 54.539062-34.070313 86.84375 0 49.953125 29.246094 95.359375 74.664063 116.167968l45.585937 52.570313h-128.265625v63.21875h183.066406l72.933594 84.125 72.9375-84.125h31.246094v-15.136719h-296.964844v-32.945312h369.535156v32.945312h-48.53125v15.136719h127.777344v-63.21875zm-127.730469 124.238281-52.902344-61.019531h105.804688zm-207.917969-76.15625h-32.945312v-32.945312h32.945312zm399.804688-32.945312h16.921875v32.945312h-16.921875zm48.976562 32.945312h-16.917969v-32.945312h16.917969zm0 0"/><path d="m48.082031 144.304688h15.136719v16.027343h-15.136719zm0 0"/><path d="m80.140625 144.304688h15.132813v16.027343h-15.132813zm0 0"/><path d="m344.597656 40.125h15.136719v16.027344h-15.136719zm0 0"/><path d="m344.597656 72.179688h15.136719v16.03125h-15.136719zm0 0"/><path d="m183.875 151.875v-15.136719h-31.609375v31.609375h15.136719v-16.472656zm0 0"/><path d="m232.402344 208.863281h-32.945313v-40.515625h-15.136719v96.167969h15.136719v-40.515625h32.945313v40.515625h15.136718v-96.167969h-15.136718zm0 0"/><path d="m264.460938 264.515625h15.136718v-40.515625h48.082032v-55.207031h-63.21875zm15.136718-80.585937h32.945313v24.933593h-32.945313zm0 0"/><path d="m48.082031 128.277344h15.136719c0-40.015625 32.558594-72.570313 72.570312-72.570313v-15.136719c-48.359374 0-87.707031 39.347657-87.707031 87.707032zm0 0"/><path d="m376.210938 40.570312v15.136719c40.011718 0 72.570312 32.554688 72.570312 72.570313h15.136719c0-48.359375-39.347657-87.707032-87.707031-87.707032zm0 0"/><path d="m344.597656 264.960938h-16.472656v15.136718h31.609375v-31.609375h-15.136719zm0 0"/></svg>