<?xml version="1.0" encoding="utf-8"?>
<!-- Generator: Adobe Illustrator 16.0.0, SVG Export Plug-In . SVG Version: 6.00 Build 0)  -->
<!DOCTYPE svg PUBLIC "-//W3C//DTD SVG 1.1//EN" "http://www.w3.org/Graphics/SVG/1.1/DTD/svg11.dtd">
<svg fill="#fff" version="1.1" id="Layer_1" xmlns="http://www.w3.org/2000/svg" xmlns:xlink="http://www.w3.org/1999/xlink" x="0px" y="0px"
	 width="792px" height="612px" viewBox="0 0 792 612" enable-background="new 0 0 792 612" xml:space="preserve">
<path d="M627.174,162.921c-49.367,0-89.41-40.043-89.41-89.409c0-2.869,0.12-5.857,0.479-8.726H258.3
	c0.239,2.869,0.359,5.737,0.359,8.726c0,12.431-2.51,24.384-7.172,35.142c-13.626,32.035-45.422,54.387-82.357,54.387
	c-3.945,0-7.65-0.239-11.475-0.717c1.554,42.434,8.248,83.194,19.603,121.563c13.507,46.139,33.588,88.692,58.929,126.225
	c41.238,61.08,96.342,109.012,159.813,137.222c134.831-60.005,231.891-208.702,238.226-384.652
	C631.835,162.802,629.564,162.921,627.174,162.921z M554.977,303.131H396.119v188.023c0,0,0,0-0.119,0
	c-45.78-24.863-86.302-62.276-117.978-109.371c-16.375-24.267-30.122-50.683-40.999-78.652h159.096V115.108h97.538
	c13.147,41.836,45.422,75.305,86.54,90.007C575.536,239.063,567.049,272.053,554.977,303.131z"/>
<path fill="#fff" d="M463.447,303.228l64.109-41.057l-64.739-6.859l14.922-76.088l-45.547,48.394l-13.759-55.51l-18.266,49.236
	l-49.276-59.444l15.485,79.151l-46.778-10.393c0,0,13.295,25.333,21.223,41.685l-68.043-5.346l61.796,41.56l-19.474,20.054
	l31.497-5.757l-22.343,79.018l66.438-55.52l16.1,40.212l17.555-29.484l58.424,56.95l-28.527-79.153l60.396,4.682L463.447,303.228z"
	/>
<path fill="#fff" d="M454.253,303.126l60.386-38.672l-58.305-6.177l15.733-67.848l-41.333,42.799l-11.514-48.352l-17.401,45.109
	l-47.281-60.919l14.94,76.366l-42.129-9.36c0,0,12.77,24.45,19.911,39.177l-67.496-4.709l61.072,35.688l-17.539,18.061l28.366-5.186
	l-20.123,71.165l59.834-50.001l15.476,38.656l15.979-30.918l51.472,53.214l-25.69-71.288l56.53,5.733L454.253,303.126z"/>
</svg>
